<?xml version="1.0" standalone="no"?><!-- Generator: Gravit.io --><svg xmlns="http://www.w3.org/2000/svg" xmlns:xlink="http://www.w3.org/1999/xlink" style="isolation:isolate" viewBox="0 0 1132.93 839.14" width="1132.93" height="839.14"><defs><clipPath id="_clipPath_6QxufYb9aamL0OxCEZ5kTl15cI9yTZQA"><rect width="1132.93" height="839.14"/></clipPath></defs><g clip-path="url(#_clipPath_6QxufYb9aamL0OxCEZ5kTl15cI9yTZQA)"><g opacity="0.1"><path d=" M 481.34 56.33 C 444.17 41.22 404.89 28.57 364.79 30.18 C 305.79 32.5 249.28 67.96 221.52 120.03 C 198 164.14 195.1 215.85 184.97 264.8 C 172.49 325.12 148.59 382.44 123.05 438.5 C 109.33 468.57 94.86 499.37 92.61 532.38 C 89.48 578.2 111.39 623.87 145.74 654.38 C 180.09 684.89 225.74 700.94 271.51 704.45 C 295.88 706.32 321.34 704.59 342.99 693.25 C 365.89 681.25 382.58 659.56 405.57 647.74 C 426.88 636.74 451.8 635.24 475.72 636.67 C 507.051 638.545 537.924 645.104 567.31 656.13 C 600.74 668.69 631.83 686.87 665.19 699.6 C 698.55 712.33 735.82 719.44 769.92 708.81 C 801.92 698.81 827.26 674.61 850.09 650.06 C 887.562 609.764 921.738 566.525 952.29 520.76 C 972.88 489.92 992.04 457.38 1001.15 421.43 C 1018.55 352.71 994.6 275.17 941.46 228.23 C 897.46 189.35 838.37 172.47 780.54 162.23 C 727.81 152.89 666.84 152.31 618.3 127.97 C 572 104.72 529.88 76.07 481.34 56.33 Z " fill="rgb(0,0,0)"/></g><linearGradient id="_lgradient_16" x1="0.5002937047150624" y1="0.9998873902880241" x2="0.5002937047150625" y2="-0.0000017449393377999556" gradientTransform="matrix(182.053,0,0,466.372,695.31,101.891)" gradientUnits="userSpaceOnUse"><stop offset="0%" stop-opacity="0.25" style="stop-color:rgb(128,128,128)"/><stop offset="54%" stop-opacity="0.12" style="stop-color:rgb(128,128,128)"/><stop offset="100%" stop-opacity="0.1" style="stop-color:rgb(128,128,128)"/></linearGradient><path d=" M 871.19 120.27 C 856.91 120.84 856.19 157.71 857.08 159.32 C 857.97 160.93 853.84 177.57 853.84 177.57 C 853.84 177.57 847.36 202.8 848.11 207.49 C 848.86 212.18 844.62 215.25 844.62 215.25 C 838.28 217.75 830.33 225.81 828.22 228.02 L 827.69 228.59 C 827.69 228.59 821.55 232.59 820.47 234.17 C 820.47 234.17 816.47 234.49 816.47 234.49 C 816.47 234.49 808.17 233.69 807.09 234.01 C 806.35 234.23 805.19 232.87 804.53 232.01 C 804.22 231.6 804.02 231.29 804.02 231.29 L 803.77 223.85 C 803.457 223.612 803.123 223.404 802.77 223.23 C 802.94 222.39 803.15 221.52 803.41 220.63 C 807.141 218.81 810.289 215.984 812.5 212.47 C 812.74 212.09 812.96 211.7 813.17 211.31 C 813.723 211.694 814.388 211.88 815.06 211.84 C 815.355 211.848 815.651 211.821 815.94 211.76 C 816.872 211.508 817.743 211.069 818.5 210.47 C 820.564 209.077 822.21 207.148 823.26 204.89 C 823.444 204.459 823.595 204.014 823.71 203.56 C 823.56 203.81 823.4 204.06 823.24 204.3 C 824.033 202.165 823.839 199.788 822.71 197.81 C 821.93 196.55 820.71 195.53 820.21 194.13 C 819.37 191.72 820.96 189.23 821.94 186.87 C 822.888 184.723 823.197 182.348 822.83 180.03 C 822.434 177.683 821.098 175.599 819.13 174.26 C 815.2 171.71 809.87 173.11 805.32 171.88 C 803.695 171.353 802.108 170.714 800.57 169.97 C 798.233 168.962 795.796 168.204 793.3 167.71 C 790.83 167.22 787.84 167.17 786.3 169.1 C 785.87 169.713 785.489 170.358 785.16 171.03 C 784.158 172.654 782.549 173.809 780.69 174.24 C 779.783 174.412 778.863 174.509 777.94 174.53 C 778.022 174.154 778.022 173.766 777.94 173.39 C 776.78 169.59 780.1 166.77 784.42 165.07 C 788.74 163.37 805.17 150.43 807.08 147.36 C 808.99 144.29 822.36 134.66 822.36 134.66 C 822.36 134.66 842.36 129 848.92 108.38 C 855.48 87.76 817.54 122.78 813.72 123.83 C 809.9 124.88 804.43 128.83 804.43 128.83 L 780.1 142.9 C 775.462 145.517 771.071 148.55 766.98 151.96 C 761.09 157.05 757.36 165.7 757.36 165.7 C 757.36 165.7 755.03 169.5 751.63 175 C 749.755 178.134 747.223 180.826 744.21 182.89 L 744.32 182.69 C 744.05 183.02 735.68 193.59 734.94 198.21 C 734.2 202.83 730.79 221.66 730.79 221.66 C 730.79 221.66 727.79 236.45 725.73 239.36 C 725.73 239.36 724.06 247.85 723.07 248.99 C 722.08 250.13 718.07 262.16 718.75 263.38 C 718.75 263.38 714.93 271.71 715.6 274.86 L 708.71 291.36 C 708.71 291.36 704.97 299.52 705.22 304.29 C 705.34 306.6 705.44 309.29 705.51 311.49 C 705.51 311.84 705.51 312.17 705.51 312.49 L 705.51 312.49 C 705.51 312.84 705.51 313.18 705.51 313.49 C 705.14 314.11 704.19 315.69 703.2 317.6 C 701.78 320.38 700.27 323.85 700.36 325.99 C 700.52 329.75 700.53 338.93 698.8 342.3 L 698.29 342.1 C 697.684 343.105 697.34 344.247 697.29 345.42 L 697.41 345.48 C 697.41 345.77 697.32 346.07 697.29 346.39 C 696.87 350.22 697.48 355.55 696.52 356.72 C 695.19 358.34 695.85 394.24 695.85 394.24 C 695.85 394.24 693.69 416.71 698.01 430.95 L 697.68 442.1 C 697.68 442.1 697.51 452.61 698.01 454.1 C 698.01 454.1 698.68 466.23 698.68 466.23 L 701.17 484.02 C 701.17 484.02 697.84 511.51 700.67 518.3 C 702.31 522.046 703.323 526.036 703.67 530.11 C 705.111 530.902 706.651 531.498 708.25 531.88 L 708.25 532.88 L 707.6 549.6 L 707.6 550.52 C 707.6 550.52 707.52 550.96 707.46 551.69 L 707.46 551.69 C 707.46 551.82 707.46 551.96 707.46 552.1 C 707.455 552.14 707.455 552.18 707.46 552.22 C 707.46 552.33 707.46 552.45 707.46 552.57 C 707.455 552.66 707.455 552.75 707.46 552.84 C 707.465 552.92 707.465 553 707.46 553.08 L 707.46 553.28 C 707.46 553.69 707.46 554.13 707.46 554.59 L 707.46 554.59 C 707.46 554.77 707.46 554.96 707.46 555.15 C 707.46 555.34 707.46 555.26 707.46 555.31 L 707.46 555.56 C 707.46 555.67 707.46 555.78 707.46 555.89 L 707.46 556.05 C 707.46 556.22 707.51 556.38 707.54 556.55 C 707.535 556.59 707.535 556.63 707.54 556.67 C 707.54 556.86 707.61 557.04 707.65 557.22 L 707.65 557.22 C 707.65 557.4 707.73 557.58 707.78 557.76 C 707.785 557.78 707.785 557.8 707.78 557.82 L 707.78 557.82 C 707.78 557.91 707.83 558.01 707.86 558.1 C 707.854 558.143 707.854 558.187 707.86 558.23 C 707.86 558.34 707.93 558.45 707.96 558.57 L 707.96 558.65 C 708.06 558.93 708.16 559.21 708.28 559.49 C 708.276 559.52 708.276 559.55 708.28 559.58 C 708.28 559.68 708.37 559.79 708.42 559.89 L 708.48 560.03 L 708.61 560.3 L 708.69 560.45 L 708.83 560.7 L 708.92 560.85 C 708.92 560.93 709.01 561.01 709.06 561.09 C 709.11 561.17 709.13 561.19 709.16 561.25 L 709.31 561.48 L 709.42 561.63 L 709.58 561.86 L 709.7 562.01 L 709.88 562.23 L 710 562.37 L 710.21 562.61 L 710.32 562.73 L 710.66 563.06 C 710.692 563.098 710.729 563.132 710.77 563.16 C 710.848 563.242 710.932 563.319 711.02 563.39 L 711.18 563.52 L 711.4 563.7 L 711.59 563.84 L 711.81 564 L 712.02 564.14 L 712.24 564.28 L 712.47 564.41 L 712.7 564.55 L 712.94 564.67 L 713.19 564.79 L 713.44 564.91 L 713.69 565.02 L 713.96 565.13 L 714.23 565.23 L 714.51 565.33 L 714.81 565.42 L 715.28 565.56 L 715.67 565.66 L 715.98 565.72 L 716.3 565.79 L 716.64 565.79 L 716.97 565.84 L 717.32 565.84 L 717.67 565.84 L 718.03 565.84 L 718.4 565.84 L 718.77 565.84 L 720.35 565.84 L 720.81 565.84 L 721.19 565.84 L 721.73 565.79 L 722.06 565.79 L 722.97 565.69 C 722.97 565.69 734.3 567.38 734.67 562.9 C 734.67 562.67 734.67 562.43 734.72 562.18 L 734.72 561.61 C 734.715 561.54 734.715 561.47 734.72 561.4 C 734.72 561.18 734.72 560.94 734.72 560.7 L 734.72 560.59 C 734.72 560.34 734.72 560.09 734.72 559.83 L 734.72 559.29 C 734.72 558.85 734.72 558.4 734.72 557.95 C 734.72 557.78 734.72 557.62 734.72 557.45 C 734.72 556.99 734.72 556.54 734.72 556.09 L 734.72 556.02 C 734.72 555.91 734.72 555.82 734.72 555.71 C 734.65 553.49 734.54 551.43 734.47 550.28 C 734.47 549.67 734.41 549.28 734.41 549.28 C 734.41 549.28 730.55 543.46 731.18 541.28 C 731.81 539.1 731.67 531.7 731.67 531.7 C 731.67 531.7 730.17 528.15 729.16 525.01 C 729.08 524.77 729.01 524.53 728.94 524.3 C 729.778 523.341 730.566 522.34 731.3 521.3 C 732.735 513.591 731.75 505.627 728.48 498.5 C 728.097 498.234 727.869 497.797 727.87 497.33 C 727.865 497.29 727.865 497.25 727.87 497.21 L 729.8 473.6 L 728.63 459.86 C 728.63 459.86 727.8 450.47 729.63 446.43 L 733.28 410.86 L 738.46 390.17 C 738.46 390.17 740.12 389.36 741.46 393.25 C 741.46 393.25 746.1 414.75 746.1 414.75 L 754.1 443.86 C 754.1 443.86 755.43 454.21 756.59 455.67 C 756.59 455.67 757.76 463.59 757.76 463.59 C 757.76 463.59 760.25 468.77 759.92 471.03 C 759.92 471.03 759.92 479.44 760.74 481.54 C 760.74 481.54 761.91 498.54 761.91 498.54 C 760.954 503.413 761.067 508.435 762.24 513.26 C 764.24 520.7 763.07 530.08 763.07 530.08 C 763.281 530.405 763.508 530.718 763.75 531.02 C 763.67 531.24 763.58 531.46 763.5 531.66 C 762.98 533.01 762.57 533.96 762.57 533.96 C 762.57 533.96 762.45 541.36 763.07 543.54 C 763.69 545.72 759.83 551.54 759.83 551.54 C 759.83 551.54 759.83 551.9 759.77 552.54 C 759.7 553.69 759.59 555.74 759.52 557.97 C 759.52 558.07 759.52 558.17 759.52 558.28 L 759.52 558.36 L 759.52 559.7 C 759.52 559.87 759.52 560.04 759.52 560.21 C 759.52 560.66 759.52 561.11 759.52 561.55 C 759.52 561.63 759.52 561.72 759.52 561.8 C 759.52 561.88 759.52 561.93 759.52 561.99 L 759.52 562.08 C 759.52 562.34 759.52 562.6 759.52 562.85 L 759.52 562.96 C 759.52 563.2 759.52 563.44 759.52 563.67 C 759.515 563.733 759.515 563.797 759.52 563.86 C 759.52 564.05 759.52 564.25 759.52 564.44 C 759.52 564.63 759.52 564.93 759.57 565.16 C 759.95 569.64 771.28 567.95 771.28 567.95 L 772.19 568.06 L 772.51 568.06 L 773.06 568.06 L 773.43 568.06 L 773.9 568.06 L 775.46 568.06 L 775.83 568.06 L 776.2 568.06 L 776.56 568.06 L 776.91 568.06 L 777.25 568.06 L 777.59 568 L 777.92 567.95 L 778.24 567.88 L 778.56 567.82 L 778.95 567.72 L 779.42 567.58 L 779.71 567.49 L 779.99 567.39 C 780.082 567.363 780.172 567.329 780.26 567.29 L 780.53 567.18 L 780.79 567.07 L 781.04 566.96 L 781.29 566.83 L 781.52 566.71 L 781.76 566.58 L 781.98 566.44 L 782.21 566.3 L 782.41 566.16 L 782.63 566 C 782.697 565.959 782.761 565.912 782.82 565.86 C 782.898 565.809 782.971 565.752 783.04 565.69 L 783.21 565.55 L 783.46 565.33 L 783.57 565.22 L 783.91 564.89 L 784.01 564.77 L 784.23 564.54 L 784.34 564.39 C 784.409 564.321 784.472 564.248 784.53 564.17 L 784.64 564.02 L 784.81 563.79 L 784.91 563.64 L 785.07 563.41 C 785.1 563.354 785.133 563.301 785.17 563.25 C 785.17 563.17 785.26 563.09 785.31 563.01 L 785.4 562.86 C 785.4 562.77 785.49 562.69 785.53 562.61 C 785.561 562.562 785.587 562.512 785.61 562.46 C 785.61 562.37 785.7 562.28 785.74 562.19 L 785.81 562.05 C 785.81 561.95 785.9 561.85 785.95 561.74 L 785.95 561.65 C 786.06 561.37 786.17 561.09 786.26 560.81 L 786.26 560.73 C 786.26 560.62 786.33 560.51 786.37 560.4 C 786.366 560.353 786.366 560.307 786.37 560.26 C 786.37 560.17 786.37 560.07 786.45 559.98 L 786.45 559.93 C 786.455 559.91 786.455 559.89 786.45 559.87 C 786.45 559.69 786.55 559.51 786.59 559.34 L 786.59 559.34 C 786.59 559.16 786.67 558.98 786.7 558.8 L 786.7 558.67 C 786.7 558.5 786.76 558.34 786.78 558.18 C 786.8 558.02 786.78 558.07 786.78 558.01 C 786.78 557.95 786.78 557.79 786.78 557.68 C 786.78 557.57 786.78 557.51 786.78 557.43 C 786.78 557.35 786.78 557.33 786.78 557.27 C 786.78 557.21 786.78 556.9 786.78 556.71 L 786.78 556.71 C 786.78 556.25 786.78 555.81 786.78 555.4 L 786.78 554.96 C 786.775 554.87 786.775 554.78 786.78 554.69 C 786.78 554.57 786.78 554.46 786.78 554.34 C 786.775 554.3 786.775 554.26 786.78 554.22 C 786.78 554.08 786.78 553.94 786.78 553.82 L 786.78 553.82 C 786.72 553.09 786.65 552.65 786.65 552.65 L 786.65 551.74 L 786.02 535.56 L 786.02 534.56 C 786.95 534.04 787.9 533.45 788.89 532.76 C 788.89 532.76 788.72 523.54 791.38 519.83 C 794.04 516.12 790.05 506.4 790.05 506.4 L 788.39 471.63 L 789.05 455.63 C 787.732 453.256 787.044 450.585 787.05 447.87 C 786.787 444.401 785.885 441.011 784.39 437.87 C 784.39 437.87 782.73 432.37 784.73 430.75 C 784.73 430.75 782.57 393.75 782.57 393.75 C 782.57 393.75 783.57 367.9 781.67 352.55 L 781.67 352.3 L 782.2 352.06 C 782.04 350.83 781.87 349.68 781.68 348.61 L 781.12 348.78 C 780.885 347.424 780.551 346.087 780.12 344.78 L 777.46 332.57 C 777.46 332.57 777.4 331.93 777.33 331 C 777.24 329.9 777.14 328.41 777.12 327.1 C 777.111 326.548 777.172 325.997 777.3 325.46 L 777.16 325.34 C 777.173 325.052 777.22 324.767 777.3 324.49 L 776.72 324 C 776.72 324 776.64 323.45 776.58 322.61 C 776.45 320.75 776.38 317.51 777.3 315.68 C 778.63 313.01 792.3 302.9 792.3 302.9 L 799.96 287.57 C 799.96 287.57 807.6 276.81 813.41 274.71 C 819.22 272.61 837.32 260.57 837.32 260.57 C 837.32 260.57 843.63 254.1 844.13 252.57 L 844.34 252.25 L 844.46 252.25 L 844.46 252.04 L 861.46 226.57 C 868.26 221.07 868.51 209.35 868.51 209.35 L 870.28 182.57 L 869.7 166.73 L 870.52 157.73 C 870.52 157.73 885.46 119.71 871.19 120.27 Z  M 773.81 189.57 C 771.963 192.805 770.991 196.465 770.99 200.19 C 770.99 200.37 770.99 200.55 770.99 200.73 C 770.99 200.91 770.99 201.02 770.99 201.16 C 770.99 204.487 771.768 207.767 773.26 210.74 C 772.505 211.586 771.942 212.586 771.61 213.67 C 770.77 212.61 768.31 209.37 768.17 207.22 C 768 204.64 765.51 202.86 765.51 202.86 C 765.51 202.86 765.05 197.96 765.67 197.12 L 765.76 197.04 C 765.76 197.04 765.83 196.92 765.97 196.72 L 765.97 196.72 C 766.68 195.65 769.07 192.04 771.54 187.93 C 771.951 188.106 772.376 188.246 772.81 188.35 L 774.33 188.73 L 773.81 189.57 Z " fill="url(#_lgradient_16)"/><linearGradient id="_lgradient_17" x1="0" y1="0.5" x2="6.123233995736766e-17" y2="-0.5" gradientTransform="matrix(1,0,0,2.45,821.64,185.81)" gradientUnits="userSpaceOnUse"><stop offset="0%" stop-opacity="0.1" style="stop-color:rgb(128,128,128)"/></linearGradient><path d=" M 822.25 186.87 C 822.4 186.53 822.52 186.17 822.64 185.81 C 822.258 186.606 821.924 187.424 821.64 188.26 C 821.85 187.79 822.06 187.33 822.25 186.87 Z " fill="url(#_lgradient_17)"/><path d=" M 778.25 210.65 C 778.25 210.65 775.12 225.57 769.35 227.5 C 769.35 227.5 776.35 246.5 776.35 246.5 L 802.82 245.05 L 803.3 239.52 C 803.3 239.52 798.3 228.45 806.67 214.98 C 815.04 201.51 778.25 210.65 778.25 210.65 Z " fill="rgb(246,186,194)"/><path d=" M 736.74 562.92 C 736.38 567.37 725.43 565.69 725.43 565.69 C 707.27 568.21 710.27 550.41 710.27 550.41 L 710.27 549.5 L 710.9 532.9 L 711.08 528.27 C 711.08 528.27 731.08 519.13 730.57 521.05 C 730.38 521.77 730.8 523.5 731.38 525.37 C 732.38 528.48 733.81 532 733.81 532 C 733.81 532 733.93 539.34 733.33 541.5 C 732.73 543.66 736.46 549.44 736.46 549.44 C 736.46 549.44 736.46 549.8 736.52 550.44 C 736.816 554.593 736.889 558.759 736.74 562.92 L 736.74 562.92 Z " fill="rgb(183,121,131)"/><path d=" M 771.75 567.73 C 771.75 567.73 760.8 569.42 760.44 564.96 C 760.274 560.79 760.337 556.613 760.63 552.45 C 760.63 551.85 760.68 551.45 760.68 551.45 C 760.68 551.45 764.41 545.67 763.81 543.51 C 763.21 541.35 763.33 534 763.33 534 C 763.33 534 763.72 533.07 764.23 531.73 C 765.3 528.92 766.91 524.36 766.58 523.06 C 766.1 521.13 786.07 530.27 786.07 530.27 L 786.27 535.45 L 786.88 551.5 L 786.88 552.41 C 786.88 552.41 789.92 570.26 771.75 567.73 Z " fill="rgb(183,121,131)"/><path d=" M 846.82 111.92 C 840.46 132.37 821.16 137.99 821.16 137.99 C 821.16 137.99 808.24 147.57 806.4 150.57 C 804.56 153.57 788.68 166.45 784.5 168.14 C 780.32 169.83 777.13 172.63 778.25 176.39 C 779.25 179.88 768.31 196.96 766.66 199.5 L 766.66 199.5 L 766.46 199.82 L 763.01 203.43 L 751.3 209.36 L 741.76 206.31 L 740.55 194.85 L 745.61 185.85 L 745.61 185.85 L 745.61 185.85 C 748.537 183.787 750.982 181.116 752.78 178.02 C 756.07 172.56 758.32 168.8 758.32 168.8 C 758.32 168.8 761.93 160.22 767.62 155.16 C 771.557 151.776 775.798 148.763 780.29 146.16 L 803.8 132.16 C 803.8 132.16 809.09 128.23 812.8 127.16 C 816.51 126.09 853.16 91.47 846.82 111.92 Z " fill="rgb(246,186,194)"/><g opacity="0.05"><path d=" M 751.3 201.99 L 766.94 198.86 C 766.771 199.035 766.671 199.266 766.66 199.51 L 766.66 199.51 L 766.46 199.83 L 763.01 203.44 L 751.3 209.37 L 741.76 206.32 L 740.55 194.86 L 745.61 185.86 L 745.61 185.86 C 740.82 195.86 745.49 202.96 745.49 202.96 L 751.3 201.99 Z " fill="rgb(0,0,0)"/></g><g opacity="0.05"><path d=" M 842.76 253.65 C 842.717 253.754 842.68 253.861 842.65 253.97 C 842.502 254.327 842.307 254.664 842.07 254.97 L 835.76 258.05 L 826.13 259.05 L 821.13 246.94 L 824.46 233.67 L 826.3 231.19 L 826.81 230.63 C 827 233.03 827.97 245.55 827.91 249.31 C 827.83 253.48 830.91 253.81 830.91 253.81 L 842.76 253.65 Z " fill="rgb(0,0,0)"/></g><path d=" M 842.28 254.57 C 842.237 254.674 842.2 254.781 842.17 254.89 C 841.69 256.41 835.6 262.83 835.6 262.83 C 835.6 262.83 818.11 274.78 812.5 276.83 C 806.89 278.88 799.5 289.58 799.5 289.58 L 792.12 304.81 C 792.12 304.81 778.89 314.81 777.61 317.49 C 776.72 319.31 776.79 322.49 776.92 324.37 C 776.92 325.2 777.04 325.75 777.04 325.75 L 773.14 329.82 L 770.03 333.06 L 765.65 337.62 L 758.52 336.62 L 736.3 333.09 L 732.04 330.69 L 708.39 317.37 C 708.39 317.37 708.39 316.54 708.33 315.27 C 708.33 314.71 708.33 314.07 708.27 313.36 C 708.2 311.2 708.1 308.51 707.99 306.22 C 707.75 301.49 711.36 293.39 711.36 293.39 L 718.01 277.02 C 717.37 273.9 721.06 265.63 721.06 265.63 C 720.42 264.43 724.27 252.48 725.23 251.36 C 726.19 250.24 727.8 241.81 727.8 241.81 C 729.8 238.93 732.69 224.25 732.69 224.25 C 732.69 224.25 735.98 205.64 736.69 200.99 C 737.4 196.34 745.49 185.92 745.75 185.6 C 739.98 196.18 745.03 203.88 745.03 203.88 L 750.81 202.88 L 766.46 199.83 C 765.74 200.31 766.22 205.6 766.22 205.6 C 767.606 206.654 768.524 208.208 768.78 209.93 C 768.93 212.28 771.78 215.93 772.31 216.58 L 772.39 216.67 C 772.797 214.411 774.175 212.444 776.16 211.29 L 779.77 216.11 L 780.98 221.88 C 780.98 221.88 780.65 222.69 778.57 224.29 C 778.57 224.29 779.45 230.06 779.45 230.06 C 780.45 231.75 780.74 238 780.74 238 L 780.74 238 C 783.39 235.68 787.55 235.68 787.55 235.68 C 789.244 233.98 790.628 231.996 791.64 229.82 C 791.811 229.098 792.304 228.495 792.977 228.183 C 793.65 227.87 794.429 227.884 795.09 228.22 C 796.298 227.171 797.615 226.256 799.02 225.49 C 800.95 224.49 803.19 226.49 803.19 226.49 L 803.43 233.88 C 803.43 233.88 803.62 234.18 803.93 234.59 C 804.56 235.47 805.69 236.82 806.4 236.59 C 807.4 236.27 815.46 237.07 815.46 237.07 C 815.46 237.07 818.27 238.27 819.31 236.75 C 820.35 235.23 826.31 231.22 826.31 231.22 C 826.31 231.22 827.46 246.11 827.46 250.27 C 827.46 254.43 830.46 254.77 830.46 254.77 L 842.28 254.57 Z " fill="rgb(211,153,153)"/><line x1="842.46" y1="254.57" x2="842.25" y2="254.57"/><circle vector-effect="non-scaling-stroke" cx="776.65" cy="244.82" r="1.4400000000000546" fill="rgb(75,68,66)"/><circle vector-effect="non-scaling-stroke" cx="766.14" cy="265.76" r="1.4400000000000546" fill="rgb(75,68,66)"/><circle vector-effect="non-scaling-stroke" cx="745.45" cy="310.59" r="1.4400000000000546" fill="rgb(75,68,66)"/><circle vector-effect="non-scaling-stroke" cx="755.23" cy="287.97" r="1.4400000000000546" fill="rgb(75,68,66)"/><g opacity="0.05"><path d=" M 731.46 525.37 C 723.94 534.31 715.82 534.16 710.98 532.9 L 711.16 528.27 C 711.16 528.27 731.16 519.13 730.65 521.05 C 730.46 521.77 730.84 523.5 731.46 525.37 Z " fill="rgb(0,0,0)"/></g><g opacity="0.05"><path d=" M 786.27 535.49 C 773.5 542.87 766.01 534.22 764.27 531.77 C 765.34 528.96 766.95 524.4 766.62 523.1 C 766.14 521.17 786.11 530.31 786.11 530.31 L 786.27 535.49 Z " fill="rgb(0,0,0)"/></g><path d=" M 791.4 519.93 C 788.84 523.62 788.99 532.76 788.99 532.76 C 772.47 544.63 763.81 530.19 763.81 530.19 C 763.81 530.19 764.93 520.89 763.01 513.51 C 761.872 508.721 761.763 503.745 762.69 498.91 C 762.69 498.91 762.37 484.15 761.56 482.07 C 761.56 482.07 760.44 473.89 760.76 471.64 C 760.76 471.64 758.68 464.27 758.68 464.27 C 758.68 464.27 758.68 457.85 757.55 456.41 C 757.55 456.41 755.15 444.69 755.15 444.69 L 747.46 415.82 C 747.46 415.82 744.25 398.34 742.97 394.49 C 742.97 394.49 740.08 391.44 740.08 391.44 L 735.46 412.13 L 731.93 447.42 C 730.16 451.42 730.93 460.74 730.93 460.74 L 732.05 474.37 L 730.19 497.79 C 730.185 497.83 730.185 497.87 730.19 497.91 C 730.187 498.367 730.402 498.798 730.77 499.07 C 733.925 506.167 734.863 514.051 733.46 521.69 C 721.27 539.34 706.51 530.19 706.51 530.19 C 706.188 526.16 705.216 522.209 703.63 518.49 C 700.9 511.75 704.11 484.49 704.11 484.49 L 701.7 466.84 C 701.7 466.84 701.54 456.25 701.06 454.84 C 701.06 454.84 700.74 442.97 700.74 442.97 L 701.06 431.9 C 696.89 417.78 698.97 395.49 698.97 395.49 C 698.97 395.49 698.33 359.88 699.62 358.27 C 700.55 357.11 699.96 351.83 700.36 348.02 C 700.402 346.863 700.725 345.734 701.3 344.73 L 701.46 344.57 C 703.55 342 703.55 331.74 703.38 327.72 C 703.3 325.6 704.75 322.16 706.13 319.4 C 707.13 317.46 708.04 315.86 708.38 315.28 L 708.52 315.05 C 708.52 315.05 717.66 317.3 741.88 328.85 C 746.217 330.997 750.869 332.438 755.66 333.12 C 758.044 333.439 760.457 333.475 762.85 333.23 C 766.501 332.879 770.03 331.732 773.19 329.87 C 774.86 328.917 776.369 327.706 777.66 326.28 C 777.33 327.28 777.53 330.7 777.66 332.74 C 777.72 333.67 777.79 334.3 777.79 334.3 L 780.46 346.2 C 780.895 347.611 781.229 349.051 781.46 350.51 C 781.65 351.57 781.81 352.72 781.96 353.94 C 783.83 369.16 782.83 394.81 782.83 394.81 C 782.83 394.81 786.83 429.94 784.92 431.54 C 783.01 433.14 784.59 438.6 784.59 438.6 C 786.042 441.73 786.913 445.098 787.16 448.54 C 787.146 451.228 787.81 453.876 789.09 456.24 L 788.44 472.12 L 790.12 506.57 C 790.12 506.57 793.97 516.24 791.4 519.93 Z " fill="rgb(132,153,240)"/><g opacity="0.05"><path d=" M 772.59 461.86 C 772.59 461.86 784.74 454.86 787.39 458.01 C 790.04 461.16 772.59 461.86 772.59 461.86 Z " fill="rgb(0,0,0)"/></g><g opacity="0.05"><path d=" M 779.93 465.71 C 779.93 465.71 777.93 466.71 782.34 467.99 C 786.75 469.27 779.93 465.71 779.93 465.71 Z " fill="rgb(0,0,0)"/></g><g opacity="0.05"><path d=" M 706.46 446.46 C 706.05 446.58 716.57 453.56 726.07 447.78 C 726.03 447.78 708.83 445.74 706.46 446.46 Z " fill="rgb(0,0,0)"/></g><g opacity="0.05"><path d=" M 725.55 459.81 C 725.55 459.81 722.67 465.47 716.77 466.31 C 710.87 467.15 725.55 459.81 725.55 459.81 Z " fill="rgb(0,0,0)"/></g><g opacity="0.05"><path d=" M 764.17 472.09 C 764.17 472.09 778.01 494.09 775.36 499.28 C 772.71 504.47 764.17 472.09 764.17 472.09 Z " fill="rgb(0,0,0)"/></g><g opacity="0.05"><path d=" M 740.83 338.66 L 739.39 381.73 C 739.39 381.73 747.93 381.37 749.39 367.18 C 749.39 367.18 751.92 341.43 751.92 341.43 L 740.83 338.66 Z " fill="rgb(0,0,0)"/></g><path d=" M 740.35 337.7 L 738.91 380.77 C 738.91 380.77 747.45 380.41 748.91 366.21 C 750.37 352.01 751.46 340.47 751.46 340.47 L 740.35 337.7 Z " fill="rgb(132,153,240)"/><g opacity="0.05"><path d=" M 723.03 339.63 C 723.03 339.63 716.29 357.7 700.87 348.95 C 700.911 347.793 701.234 346.664 701.81 345.66 C 706.03 347.43 715.81 350.02 719.81 338.3 L 723.03 339.63 Z " fill="rgb(0,0,0)"/></g><g opacity="0.05"><path d=" M 722.55 337.7 C 722.55 337.7 715.81 355.77 700.39 347.02 C 700.432 345.863 700.755 344.734 701.33 343.73 C 705.55 345.51 715.33 348.09 719.33 336.38 L 722.55 337.7 Z " fill="rgb(0,0,0)"/></g><path d=" M 722.55 338.66 C 722.55 338.66 715.81 356.73 700.39 347.98 C 700.432 346.823 700.755 345.694 701.33 344.69 C 705.55 346.47 715.33 349.05 719.33 337.34 L 722.55 338.66 Z " fill="rgb(132,153,240)"/><g opacity="0.05"><path d=" M 781.55 354.9 C 764.61 362.96 758.4 343.96 758.4 343.96 L 762.4 344.08 C 763.1 356.23 776.49 352.96 781.08 351.47 C 781.24 352.57 781.4 353.68 781.55 354.9 Z " fill="rgb(0,0,0)"/></g><g opacity="0.05"><path d=" M 782.51 353.46 C 765.58 361.51 759.36 342.51 759.36 342.51 L 763.36 342.63 C 764.06 354.78 777.45 351.52 782.04 350.03 C 782.2 351.09 782.36 352.24 782.51 353.46 Z " fill="rgb(0,0,0)"/></g><path d=" M 782.03 353.94 C 765.1 361.99 758.88 342.99 758.88 342.99 L 762.88 343.11 C 763.58 355.27 776.97 352 781.56 350.51 C 781.72 351.57 781.88 352.72 782.03 353.94 Z " fill="rgb(132,153,240)"/><g opacity="0.1"><path d=" M 722.55 338.66 C 722.55 338.66 715.81 356.73 700.39 347.98 C 700.432 346.823 700.755 345.694 701.33 344.69 C 705.55 346.47 715.33 349.05 719.33 337.34 L 722.55 338.66 Z " fill="rgb(255,255,255)"/></g><g opacity="0.1"><path d=" M 782.03 353.94 C 765.1 361.99 758.88 342.99 758.88 342.99 L 762.88 343.11 C 763.58 355.27 776.97 352 781.56 350.51 C 781.72 351.57 781.88 352.72 782.03 353.94 Z " fill="rgb(255,255,255)"/></g><g opacity="0.05"><path d=" M 736.86 559.57 C 736.86 560.8 736.86 561.95 736.74 562.9 C 736.38 567.35 725.43 565.67 725.43 565.67 C 715.43 567.06 711.83 562.26 710.64 557.67 C 710.266 556.179 710.081 554.647 710.09 553.11 C 710.084 552.194 710.144 551.278 710.27 550.37 L 710.27 549.46 C 712.425 548.81 714.762 549.287 716.49 550.73 C 720.94 554.34 726.84 551.57 726.84 551.57 C 726.84 551.57 731.17 551.93 732.84 553.37 C 733.78 554.18 735.33 552.23 736.51 550.37 C 736.58 551.57 736.69 553.74 736.76 556.06 C 736.84 557.25 736.86 558.45 736.86 559.57 Z " fill="rgb(0,0,0)"/></g><g opacity="0.05"><path d=" M 719.3 559.31 C 719.3 559.31 716.3 562.25 710.64 557.71 C 710.266 556.219 710.081 554.687 710.09 553.15 C 712.98 555.35 718.34 559.31 719.3 559.31 Z " fill="rgb(0,0,0)"/></g><g opacity="0.05"><path d=" M 736.86 559.57 C 736.367 559.951 735.738 560.111 735.123 560.012 C 734.507 559.914 733.96 559.566 733.61 559.05 C 734.777 558.162 735.849 557.157 736.81 556.05 C 736.84 557.25 736.86 558.45 736.86 559.57 Z " fill="rgb(0,0,0)"/></g><g opacity="0.05"><path d=" M 760.33 561.63 C 760.33 562.87 760.33 564.02 760.44 564.96 C 760.8 569.42 771.75 567.73 771.75 567.73 C 781.75 569.13 785.35 564.33 786.54 559.73 C 787.129 557.343 787.255 554.865 786.91 552.43 L 786.91 551.52 C 784.751 550.881 782.416 551.357 780.68 552.79 C 776.23 556.4 770.34 553.63 770.34 553.63 C 770.34 553.63 766.01 554 764.34 555.44 C 763.4 556.25 761.85 554.3 760.68 552.44 C 760.61 553.64 760.49 555.81 760.42 558.13 C 760.34 559.3 760.32 560.5 760.33 561.63 Z " fill="rgb(0,0,0)"/></g><g opacity="0.05"><path d=" M 777.89 561.35 C 777.89 561.35 780.89 564.29 786.54 559.75 C 786.917 558.263 787.105 556.734 787.1 555.2 C 784.2 557.39 778.84 561.35 777.89 561.35 Z " fill="rgb(0,0,0)"/></g><g opacity="0.05"><path d=" M 760.33 561.63 C 760.822 562.01 761.449 562.17 762.063 562.071 C 762.676 561.973 763.222 561.625 763.57 561.11 C 762.402 560.224 761.33 559.218 760.37 558.11 C 760.34 559.3 760.32 560.5 760.33 561.63 Z " fill="rgb(0,0,0)"/></g><g opacity="0.05"><path d=" M 747.13 254.57 C 747.13 254.57 731.73 297.08 737.66 300.77 C 743.59 304.46 747.13 254.57 747.13 254.57 Z " fill="rgb(0,0,0)"/></g><g opacity="0.05"><path d=" M 758.36 241.45 C 758.36 241.45 755.46 255.57 756.91 256.85 C 756.91 256.85 758.36 241.45 758.36 241.45 Z " fill="rgb(0,0,0)"/></g><g opacity="0.05"><path d=" M 789.46 274.34 C 789.46 274.34 770.53 291.98 771.81 293.43 C 773.09 294.88 789.46 274.34 789.46 274.34 Z " fill="rgb(0,0,0)"/></g><g opacity="0.05"><path d=" M 803.93 235.51 C 796.76 237.7 780 242.82 779.81 242.78 L 780.74 238.96 C 783.39 236.64 787.55 236.64 787.55 236.64 C 789.244 234.94 790.628 232.956 791.64 230.78 C 791.811 230.058 792.304 229.455 792.977 229.143 C 793.65 228.83 794.429 228.844 795.09 229.18 C 796.3 228.134 797.618 227.219 799.02 226.45 C 800.95 225.45 803.19 227.45 803.19 227.45 L 803.43 234.83 C 803.43 234.83 803.62 235.1 803.93 235.51 Z " fill="rgb(0,0,0)"/></g><path d=" M 803.93 234.57 C 796.76 236.76 780 241.88 779.81 241.83 L 780.74 238.02 C 783.39 235.7 787.55 235.7 787.55 235.7 C 789.244 234 790.628 232.016 791.64 229.84 C 791.811 229.118 792.304 228.515 792.977 228.203 C 793.65 227.89 794.429 227.904 795.09 228.24 C 796.298 227.191 797.615 226.276 799.02 225.51 C 800.95 224.51 803.19 226.51 803.19 226.51 L 803.43 233.9 C 803.43 233.9 803.62 234.14 803.93 234.57 Z " fill="rgb(211,153,153)"/><g opacity="0.05"><path d=" M 778.97 230.57 C 779.97 232.26 780.25 238.51 780.25 238.51 L 777.46 240.73 L 772.16 225.45 L 771.92 217.51 L 771.82 217.06 L 771.9 217.15 C 772.305 214.892 773.684 212.928 775.67 211.78 L 779.28 216.59 L 780.49 222.36 C 780.49 222.36 780.16 223.17 778.08 224.77 C 776 226.37 778.97 230.57 778.97 230.57 Z " fill="rgb(0,0,0)"/></g><path d=" M 779.46 230.06 C 780.46 231.75 780.75 238 780.75 238 L 777.96 240.25 L 772.66 224.97 L 772.42 217.03 L 772.31 216.58 L 772.39 216.67 C 772.797 214.411 774.175 212.444 776.16 211.29 L 779.77 216.11 L 780.98 221.88 C 780.98 221.88 780.65 222.69 778.57 224.29 C 776.49 225.89 779.46 230.06 779.46 230.06 Z " fill="rgb(211,153,153)"/><g opacity="0.05"><path d=" M 814.82 203.92 C 814.814 215.876 805.119 225.564 793.163 225.56 C 781.208 225.556 771.518 215.862 771.52 203.907 C 771.522 191.951 781.214 182.26 793.17 182.26 C 798.928 182.211 804.465 184.478 808.536 188.551 C 812.607 192.624 814.871 198.162 814.82 203.92 L 814.82 203.92 Z " fill="rgb(0,0,0)"/></g><path d=" M 814.82 202.95 C 814.824 211.712 809.548 219.614 801.454 222.969 C 793.359 226.324 784.04 224.472 777.844 218.276 C 771.648 212.08 769.796 202.761 773.151 194.666 C 776.506 186.572 784.408 181.296 793.17 181.3 C 798.922 181.268 804.447 183.539 808.514 187.606 C 812.581 191.673 814.852 197.198 814.82 202.95 Z " fill="rgb(246,186,194)"/><g opacity="0.05"><path d=" M 814.82 202.95 C 814.827 206.919 813.737 210.812 811.67 214.2 C 811.35 213.63 811.16 212.97 810.84 212.39 C 810.39 211.58 809.35 210.9 808.58 211.39 C 808.258 211.653 808.012 211.999 807.87 212.39 C 807.24 213.72 806.12 215.05 804.65 215.02 C 803.341 214.88 802.253 213.951 801.91 212.68 C 801.601 211.43 801.547 210.131 801.75 208.86 C 801.97 206.26 802.01 203.26 800.08 201.51 C 798.834 200.599 797.41 199.961 795.9 199.64 C 794.43 199.16 792.9 198.4 792.3 196.98 C 791.9 195.98 792 194.92 791.64 193.98 C 790.885 192.452 789.434 191.385 787.75 191.12 C 785.839 192.698 783.418 193.527 780.94 193.45 C 778.669 193.396 776.416 193.04 774.24 192.39 C 779.041 183.776 789.055 179.492 798.6 181.969 C 808.146 184.446 814.813 193.058 814.82 202.92 L 814.82 202.95 Z " fill="rgb(0,0,0)"/></g><path d=" M 791.64 193.04 C 792 194.04 791.9 195.12 792.3 196.04 C 792.89 197.46 794.43 198.22 795.9 198.7 C 797.408 199.02 798.832 199.654 800.08 200.56 C 802.01 202.32 801.97 205.32 801.75 207.92 C 801.547 209.191 801.601 210.49 801.91 211.74 C 802.258 213.007 803.344 213.935 804.65 214.08 C 806.12 214.08 807.24 212.78 807.87 211.45 C 808.013 211.059 808.258 210.714 808.58 210.45 C 809.35 209.94 810.39 210.62 810.84 211.45 C 811.155 212.316 811.589 213.134 812.13 213.88 C 812.853 214.504 813.838 214.728 814.76 214.48 C 815.665 214.233 816.506 213.797 817.23 213.2 C 819.234 211.805 820.823 209.894 821.83 207.67 C 822.824 205.418 822.717 202.832 821.54 200.67 C 820.79 199.41 819.6 198.4 819.13 197.01 C 818.31 194.62 819.85 192.16 820.8 189.82 C 821.71 187.68 822.005 185.328 821.65 183.03 C 821.278 180.718 819.991 178.653 818.08 177.3 C 814.28 174.77 809.14 176.16 804.74 174.94 C 803.166 174.423 801.632 173.792 800.15 173.05 C 797.904 172.053 795.557 171.302 793.15 170.81 C 790.76 170.33 787.87 170.27 786.36 172.18 C 785.947 172.792 785.579 173.434 785.26 174.1 C 784.307 175.698 782.749 176.845 780.94 177.28 C 779.65 177.59 778.3 177.51 776.94 177.7 C 775.596 177.793 774.369 178.497 773.61 179.61 C 772.95 180.81 773.23 182.27 773.39 183.61 C 773.55 184.95 773.47 186.55 772.39 187.38 C 771.88 187.77 771.18 187.96 770.87 188.51 C 770.577 189.173 770.771 189.951 771.34 190.4 C 771.902 190.825 772.556 191.113 773.25 191.24 C 775.737 192.017 778.316 192.457 780.92 192.55 C 783.552 192.636 786.113 191.692 788.06 189.92 C 787.89 190.09 786.79 190.02 786.59 190.01 C 788.53 190.22 790.91 191.08 791.64 193.04 Z " fill="rgb(126,100,107)"/><g style="opacity:0.05;"><g opacity="0.05"><path d=" M 818.46 210.77 C 817.734 211.366 816.893 211.805 815.99 212.06 C 815.069 212.299 814.091 212.071 813.37 211.45 C 812.824 210.706 812.386 209.887 812.07 209.02 C 811.62 208.21 810.58 207.53 809.81 208.02 C 809.492 208.288 809.248 208.632 809.1 209.02 C 808.48 210.35 807.35 211.68 805.88 211.65 C 804.573 211.511 803.487 210.581 803.15 209.31 C 802.838 208.061 802.78 206.762 802.98 205.49 C 803.21 202.89 803.24 199.9 801.32 198.14 C 800.07 197.229 798.643 196.592 797.13 196.27 C 795.67 195.79 794.13 195.03 793.53 193.61 C 793.13 192.61 793.23 191.55 792.87 190.61 C 792.28 189.02 790.61 188.15 788.98 187.75 C 787.062 189.318 784.646 190.148 782.17 190.09 C 779.566 189.989 776.988 189.545 774.5 188.77 C 773.809 188.642 773.155 188.358 772.59 187.94 C 772.473 187.832 772.369 187.711 772.28 187.58 C 771.838 187.769 771.452 188.069 771.16 188.45 C 770.867 189.113 771.061 189.891 771.63 190.34 C 772.192 190.765 772.846 191.053 773.54 191.18 C 776.027 191.957 778.606 192.397 781.21 192.49 C 783.683 192.556 786.097 191.729 788.01 190.16 C 789.64 190.56 791.32 191.42 791.91 193.01 C 792.27 194.01 792.17 195.09 792.57 196.01 C 793.17 197.43 794.7 198.19 796.17 198.67 C 797.678 198.99 799.102 199.624 800.35 200.53 C 802.28 202.29 802.24 205.29 802.02 207.89 C 801.817 209.161 801.871 210.46 802.18 211.71 C 802.528 212.977 803.614 213.905 804.92 214.05 C 806.39 214.05 807.51 212.75 808.14 211.42 C 808.283 211.029 808.528 210.684 808.85 210.42 C 809.62 209.91 810.66 210.59 811.11 211.42 C 811.424 212.288 811.862 213.107 812.41 213.85 C 813.129 214.473 814.111 214.698 815.03 214.45 C 815.935 214.203 816.776 213.767 817.5 213.17 C 819.504 211.775 821.093 209.864 822.1 207.64 C 822.278 207.212 822.421 206.771 822.53 206.32 C 821.506 208.077 820.118 209.594 818.46 210.77 Z " fill="rgb(0,0,0)"/></g><g opacity="0.05"><path d=" M 820.46 191.15 C 820.67 190.69 820.87 190.23 821.06 189.78 C 821.25 189.33 821.32 189.08 821.43 188.72 C 821.062 189.511 820.738 190.323 820.46 191.15 L 820.46 191.15 Z " fill="rgb(0,0,0)"/></g><g opacity="0.05"><path d=" M 773.7 184.86 C 774.7 184.01 774.77 182.49 774.61 181.18 C 774.492 180.415 774.429 179.644 774.42 178.87 C 774.207 179.078 774.022 179.314 773.87 179.57 C 773.21 180.77 773.49 182.23 773.65 183.57 C 773.702 183.998 773.719 184.429 773.7 184.86 Z " fill="rgb(0,0,0)"/></g></g><g opacity="0.05"><path d=" M 777.64 333.73 C 775.78 333.86 773.17 334 770.03 334.11 C 767.85 334.18 765.41 334.23 762.8 334.23 C 760.52 334.23 758.11 334.23 755.61 334.12 C 747.703 333.916 739.823 333.103 732.04 331.69 C 721.65 329.69 712.04 326.24 706.04 320.4 C 707.04 318.46 707.95 316.85 708.29 316.28 C 708.29 315.72 708.29 315.07 708.23 314.37 C 718.78 319.37 751.67 333.26 776.88 325.37 C 776.88 326.2 777 326.75 777 326.75 L 777.57 327.23 C 777.28 328.27 777.46 331.69 777.64 333.73 Z " fill="rgb(0,0,0)"/></g><path d=" M 777.64 332.77 C 775.78 332.9 773.17 333.04 770.03 333.14 C 767.85 333.22 765.41 333.26 762.8 333.26 C 760.52 333.26 758.11 333.26 755.61 333.15 C 747.703 332.949 739.823 332.14 732.04 330.73 C 721.65 328.73 712.04 325.27 706.04 319.43 C 707.04 317.49 707.95 315.89 708.29 315.31 C 708.29 314.75 708.29 314.11 708.23 313.4 C 718.78 318.4 751.67 332.3 776.88 324.45 C 776.88 325.28 777 325.83 777 325.83 L 777.57 326.31 C 777.28 327.31 777.46 330.73 777.64 332.77 Z " fill="rgb(75,68,66)"/><path d=" M 278.53 770.44 C 276.107 767.523 274.996 763.734 275.46 759.97 L 319.6 398.8 L 323.26 368.8 C 324.108 361.897 329.945 356.694 336.9 356.64 L 466.19 355.78 C 469.909 355.757 473.462 354.237 476.048 351.564 C 478.633 348.89 480.032 345.288 479.93 341.57 L 479.88 340.2 C 479.753 336.45 481.153 332.81 483.76 330.112 C 486.367 327.414 489.958 325.891 493.71 325.89 L 629.57 325.89 C 637.196 325.89 643.383 332.064 643.4 339.69 C 643.399 340.312 643.359 340.933 643.28 341.55 C 642.759 345.442 643.918 349.373 646.466 352.36 C 649.015 355.348 652.714 357.111 656.64 357.21 L 787.12 360.54 C 791.135 360.639 794.908 362.479 797.457 365.581 C 800.007 368.684 801.081 372.742 800.4 376.7 L 735.17 757.7 L 733.94 764.9 C 733.636 766.739 732.955 768.496 731.94 770.06 L 278.53 770.44 Z " fill="rgb(183,182,204)"/><g style="opacity:0.5;"><g opacity="0.5"><linearGradient id="_lgradient_18" x1="0" y1="0.5" x2="1" y2="0.5" gradientTransform="matrix(262.836,0.129,-0.04,80.362,497.961,337.48)" gradientUnits="userSpaceOnUse"><stop offset="100%" stop-opacity="0.25" style="stop-color:rgb(128,128,128)"/><stop offset="100%" stop-opacity="0.24700422174289768" style="stop-color:rgb(128,128,128)"/><stop offset="100%" stop-opacity="0.11975111996017919" style="stop-color:rgb(128,128,128)"/></linearGradient><rect x="498.115" y="337.227" width="262.83" height="80.36" transform="matrix(0.568,-0.823,0.823,0.568,-38.814,680.822)" fill="url(#_lgradient_18)"/></g></g><rect x="591.818" y="248.103" width="76.4" height="259.31" transform="matrix(0.823,0.568,-0.568,0.823,326.402,-291.152)" fill="rgb(249,250,251)"/><rect x="656.599" y="270.049" width="53.937" height="53.937" transform="matrix(0.821,0.571,-0.571,0.821,291.813,-337.027)" fill="rgb(247,182,67)"/><g opacity="0.5"><rect x="621.985" y="323.416" width="54.01" height="54.01" transform="matrix(0.823,0.568,-0.568,0.823,314.226,-306.782)" fill="rgb(247,182,67)"/></g><g opacity="0.3"><rect x="584.91" y="377.064" width="54.01" height="54.01" transform="matrix(0.823,0.568,-0.568,0.823,338.149,-276.198)" fill="rgb(247,182,67)"/></g><g style="opacity:0.5;"><g opacity="0.5"><linearGradient id="_lgradient_19" x1="0" y1="0.5" x2="1" y2="0.5" gradientTransform="matrix(261.85,0.136,-0.042,80.36,452.183,330.569)" gradientUnits="userSpaceOnUse"><stop offset="100%" stop-opacity="0.25" style="stop-color:rgb(128,128,128)"/><stop offset="100%" stop-opacity="0.2470042217428977" style="stop-color:rgb(128,128,128)"/><stop offset="100%" stop-opacity="0.11975111996017919" style="stop-color:rgb(128,128,128)"/></linearGradient><rect x="452.355" y="330.334" width="261.85" height="80.36" transform="matrix(0.28,-0.96,0.96,0.28,64.031,826.448)" fill="url(#_lgradient_19)"/></g></g><rect x="545.714" y="241.54" width="76.4" height="258.33" transform="matrix(0.96,0.28,-0.28,0.96,127.424,-148.905)" fill="rgb(249,250,251)"/><rect x="584.447" y="249.659" width="54.01" height="54.01" transform="matrix(0.96,0.28,-0.28,0.96,102.151,-160.405)" fill="rgb(249,120,120)"/><g opacity="0.5"><rect x="566.155" y="312.246" width="54.01" height="54.01" transform="matrix(0.96,0.28,-0.28,0.96,118.973,-152.761)" fill="rgb(249,120,120)"/></g><g opacity="0.3"><rect x="547.865" y="374.824" width="54.01" height="54.01" transform="matrix(0.96,0.28,-0.28,0.96,135.791,-145.119)" fill="rgb(249,120,120)"/></g><g style="opacity:0.5;"><g opacity="0.5"><linearGradient id="_lgradient_20" x1="0" y1="0.5" x2="1" y2="0.5" gradientTransform="matrix(261.796,0.057,-0.017,80.344,427.592,331.513)" gradientUnits="userSpaceOnUse"><stop offset="100%" stop-opacity="0.25" style="stop-color:rgb(128,128,128)"/><stop offset="100%" stop-opacity="0.2470042217428977" style="stop-color:rgb(128,128,128)"/><stop offset="100%" stop-opacity="0.11975111996017919" style="stop-color:rgb(128,128,128)"/></linearGradient><rect x="427.751" y="331.489" width="261.85" height="80.36" transform="matrix(0.08,-0.997,0.997,0.08,143.399,898.738)" fill="url(#_lgradient_20)"/></g></g><rect x="521.05" y="242.568" width="76.4" height="258.33" transform="matrix(0.997,0.08,-0.08,0.997,31.614,-43.654)" fill="rgb(249,250,251)"/><rect x="540.118" y="247.064" width="54.01" height="54.01" transform="matrix(0.997,0.08,-0.08,0.997,23.807,-44.6)" fill="rgb(115,181,59)"/><g opacity="0.5"><rect x="534.883" y="312.045" width="54.01" height="54.01" transform="matrix(0.997,0.08,-0.08,0.997,29.001,-43.971)" fill="rgb(115,181,59)"/></g><g opacity="0.3"><rect x="529.657" y="377.047" width="54.01" height="54.01" transform="matrix(0.997,0.08,-0.08,0.997,34.198,-43.342)" fill="rgb(115,181,59)"/></g><g style="opacity:0.5;"><g opacity="0.5"><linearGradient id="_lgradient_21" x1="0" y1="0.5" x2="6.123233995736766e-17" y2="-0.5" gradientTransform="matrix(80.355,0.037,-0.121,261.835,500.333,246.886)" gradientUnits="userSpaceOnUse"><stop offset="0%" stop-opacity="0.1" style="stop-color:rgb(128,128,128)"/></linearGradient><rect x="500.476" y="246.671" width="80.36" height="261.85" transform="matrix(0.999,-0.046,0.046,0.999,-16.634,25.012)" fill="url(#_lgradient_21)"/></g></g><rect x="503.114" y="248.401" width="76.4" height="258.33" transform="matrix(0.999,-0.046,0.046,0.999,-16.632,25.042)" fill="rgb(255,255,255)"/><rect x="509.851" y="252.665" width="54.01" height="54.01" transform="matrix(0.999,-0.046,0.046,0.999,-12.179,24.737)" fill="rgb(68,104,236)"/><g opacity="0.5"><rect x="515.05" y="315.61" width="54.077" height="54.077" transform="matrix(0.999,-0.05,0.05,0.999,-16.435,27.498)" fill="rgb(68,104,236)"/></g><g opacity="0.3"><rect x="515.787" y="382.94" width="54.01" height="54.01" transform="matrix(0.999,-0.046,0.046,0.999,-18.105,25.143)" fill="rgb(68,104,236)"/></g><path d=" M 529.68 590.71 L 461.8 616.97 L 362.59 655.32 C 358.84 648.32 353.32 638.86 346.49 627.57 C 322.99 588.63 284.11 528.06 249.49 474.83 C 210.49 414.83 176.92 364.2 176.92 364.2 L 201.22 357.2 L 399.72 299.57 L 529.68 590.71 Z " fill="rgb(230,236,248)"/><g opacity="0.1"><path d=" M 529.68 590.71 L 461.8 616.97 C 423.88 624.87 385.184 628.426 346.46 627.57 C 322.96 588.63 284.08 528.06 249.46 474.83 L 201.23 357.16 L 399.72 299.57 L 529.68 590.71 Z " fill="rgb(0,0,0)"/></g><path d=" M 580.18 574.37 C 580.18 574.37 474.73 636.75 317.29 622.64 L 191.78 316.64 L 251.93 306.3 L 459.87 270.59 L 577.87 568.42 L 580.18 574.37 Z " fill="rgb(68,104,236)"/><g opacity="0.1"><path d=" M 577.83 568.46 C 553 569.68 524.27 569.56 495.37 566.11 C 464.09 562.43 432.63 554.85 405.66 540.95 C 383.11 529.34 363.83 516.71 347.02 501.56 C 303.29 462.23 276.23 405.97 251.93 306.34 L 459.87 270.63 L 577.83 568.46 Z " fill="rgb(0,0,0)"/></g><path d=" M 655.19 551.35 C 655.19 551.35 577.46 566.57 498.34 557.2 C 467.06 553.52 435.6 545.94 408.63 532.04 C 386.08 520.43 366.81 507.8 349.99 492.65 C 295.87 443.96 267.29 369.34 237.82 218.65 C 237.82 218.65 367.04 249.84 494.82 181.52 C 494.78 181.57 537.85 450.35 655.19 551.35 Z " fill="rgb(249,250,251)"/><g opacity="0.1"><path d=" M 498.34 557.2 C 467.06 553.52 435.6 545.94 408.63 532.04 C 386.08 520.43 366.81 507.8 349.99 492.65 C 396.07 488.91 402.69 463.72 402.69 463.72 C 436.85 517.93 498.34 557.2 498.34 557.2 Z " fill="rgb(0,0,0)"/></g><g opacity="0.3"><path d=" M 304.66 273.97 C 304.66 273.97 409.74 268.03 439.08 245.38 L 443.53 259.68 C 443.53 259.68 374.1 290.31 304.66 290.68 L 304.66 273.97 Z " fill="rgb(68,104,236)"/></g><g opacity="0.3"><path d=" M 304.66 344.57 C 304.66 344.57 406.4 339 483.27 301.87 L 485.87 307.81 C 485.87 307.81 424.87 343.42 304.66 352.74 L 304.66 344.57 Z " fill="rgb(68,104,236)"/></g><g opacity="0.3"><path d=" M 312.85 372.08 C 312.85 372.08 414.59 366.51 491.45 329.38 L 494.05 335.32 C 494.05 335.32 433.05 370.92 312.85 380.25 L 312.85 372.08 Z " fill="rgb(68,104,236)"/></g><g opacity="0.3"><path d=" M 321.03 399.63 C 321.03 399.63 422.77 394.06 499.64 356.93 L 502.23 362.87 C 502.23 362.87 441.23 398.48 321.03 407.8 L 321.03 399.63 Z " fill="rgb(68,104,236)"/></g><g opacity="0.3"><path d=" M 329.22 427.18 C 329.22 427.18 430.96 421.61 507.82 384.48 L 510.42 390.42 C 510.42 390.42 449.42 426.03 329.22 435.35 L 329.22 427.18 Z " fill="rgb(68,104,236)"/></g><g opacity="0.3"><path d=" M 337.4 454.74 C 337.4 454.74 439.14 449.17 516.01 412.04 L 518.6 417.98 C 518.6 417.98 457.6 453.58 337.4 462.91 L 337.4 454.74 Z " fill="rgb(68,104,236)"/></g><g opacity="0.1"><ellipse vector-effect="non-scaling-stroke" cx="813.75" cy="815.19" rx="102" ry="9.240000000000009" fill="rgb(68,104,236)"/></g><linearGradient id="_lgradient_22" x1="0" y1="0.5" x2="1" y2="0.5" gradientTransform="matrix(170.68,0.03,-0.053,305.438,876.042,-24.191)" gradientUnits="userSpaceOnUse"><stop offset="100%" stop-opacity="0.25" style="stop-color:rgb(128,128,128)"/><stop offset="100%" stop-opacity="0.24921177152530696" style="stop-color:rgb(128,128,128)"/><stop offset="100%" stop-opacity="0.11993451640364088" style="stop-color:rgb(128,128,128)"/></linearGradient><rect x="875.986" y="-24.341" width="170.67" height="305.42" transform="matrix(0.309,-0.951,0.951,0.309,542.018,1002.898)" fill="url(#_lgradient_22)"/><rect x="877.16" y="-22.227" width="168.32" height="301.2" transform="matrix(0.309,-0.951,0.951,0.309,542.013,1002.9)" fill="rgb(246,247,249)"/><g style="opacity:0.2;"><g opacity="0.2"><circle vector-effect="non-scaling-stroke" cx="874.94" cy="90.37" r="31.360000000000014" fill="rgb(68,104,236)"/></g></g><g style="opacity:0.2;"><g opacity="0.2"><rect x="1011.972" y="33.447" width="8.59" height="136.63" transform="matrix(0.309,-0.951,0.951,0.309,605.279,1036.771)" fill="rgb(68,104,236)"/></g></g><g style="opacity:0.2;"><g opacity="0.2"><rect x="973.327" y="77.427" width="8.59" height="69.6" transform="matrix(0.309,-0.951,0.951,0.309,568.63,1007.249)" fill="rgb(68,104,236)"/></g></g><g style="opacity:0.2;"><g opacity="0.2"><rect x="986.976" y="83.426" width="8.59" height="112.57" transform="matrix(0.309,-0.951,0.951,0.309,551.922,1039.216)" fill="rgb(68,104,236)"/></g></g><g style="opacity:0.2;"><g opacity="0.2"><rect x="991.647" y="95.948" width="8.59" height="136.63" transform="matrix(0.309,-0.951,0.951,0.309,531.799,1060.619)" fill="rgb(68,104,236)"/></g></g><g style="opacity:0.5;"><g opacity="0.5"><rect x="1023.609" y="194.53" width="16.61" height="37.81" transform="matrix(0.309,-0.951,0.951,0.309,509.887,1128.797)" fill="rgb(68,104,236)"/></g></g><linearGradient id="_lgradient_23" x1="0" y1="0.5" x2="6.123233995736766e-17" y2="-0.5" gradientTransform="matrix(207.411,0,0,422.176,727.582,396.94)" gradientUnits="userSpaceOnUse"><stop offset="0%" stop-opacity="0.1" style="stop-color:rgb(128,128,128)"/></linearGradient><path d=" M 934.97 482.96 C 934.955 482.625 934.922 482.291 934.87 481.96 C 934.87 481.61 934.76 481.26 934.7 480.96 C 934.57 480.28 934.43 479.61 934.27 478.96 C 934.19 478.65 934.11 478.33 934.02 478.03 C 933.073 474.483 931.367 471.183 929.02 468.36 C 928.89 468.2 928.75 468.05 928.62 467.9 C 928.49 467.75 928.08 467.32 927.81 467.05 C 927.54 466.78 927.29 466.54 927.03 466.31 C 926.77 466.08 926.53 465.87 926.29 465.67 C 925.81 465.28 925.36 464.95 924.97 464.67 C 924.58 464.39 924.4 464.29 924.16 464.15 C 923.587 463.808 922.945 463.599 922.28 463.54 L 918.13 463.13 L 918.13 463.13 L 912.46 462.57 L 892.19 454.7 L 891.39 454.98 C 890.796 453.343 890.295 451.674 889.89 449.98 C 890.504 449.714 891.051 449.315 891.49 448.81 C 891.968 448.438 892.346 447.954 892.59 447.4 C 893.1 446.22 892.12 443.71 892.32 442.27 C 892.64 439.96 893.84 437.73 894.82 435.64 C 896.9 431.15 898.42 426.28 898.17 421.35 C 897.92 416.42 895.67 411.42 891.51 408.67 C 889.36 407.24 886.83 406.48 884.59 405.18 C 882.85 404.18 881.32 402.84 879.66 401.7 C 871.355 396.163 860.749 395.403 851.74 399.7 C 847.53 401.77 843.94 404.87 839.97 407.36 C 836 409.85 831.32 411.76 826.67 411.02 C 826.606 411.209 826.559 411.403 826.53 411.6 L 826.14 411.55 C 825.34 413.73 827.3 415.89 829.14 417.38 C 832.57 420.21 836.46 423.03 840.93 423.13 C 842.66 423.13 844.49 422.8 846.06 423.51 C 846.417 423.668 846.753 423.869 847.06 424.11 C 845.031 432.241 847.735 440.822 854.06 446.32 L 843.71 442.6 C 843.71 442.6 843.28 442.82 842.61 443.24 L 828.25 433.68 C 828.25 433.68 799.46 423.24 791.46 439.5 C 783.46 455.76 826.13 447.37 826.13 447.37 L 835.26 452.37 C 834.953 454.257 835.306 456.193 836.26 457.85 L 861.15 473.23 C 856.15 474.78 847.86 477.23 846.39 477.23 C 844.26 477.23 838.39 479.33 834.66 487.72 C 830.93 496.11 817.59 537.04 805.86 543.86 C 794.13 550.68 763.2 596.33 763.2 596.33 L 763.34 596.69 C 762.79 596.84 762.25 596.99 761.72 597.17 C 755.225 599.425 749.603 603.665 745.65 609.29 C 744.584 610.772 744.384 612.709 745.124 614.377 C 745.865 616.046 747.436 617.197 749.25 617.4 C 761.46 618.95 768.13 613.32 771.34 609.07 C 771.55 608.8 771.74 608.53 771.92 608.26 C 772.87 608.668 773.936 608.718 774.92 608.4 L 789.85 596.33 C 789.85 596.33 778.17 607.83 785.02 618.33 L 784.5 619.06 C 772.954 635.544 764.484 653.981 759.5 673.48 C 759.5 673.48 753.1 678.2 752.57 697.09 C 752.57 697.09 745.63 746.41 745.63 746.41 C 745.63 746.41 741.37 782.62 744.03 793.63 C 744.03 793.63 744.34 794.07 744.91 794.74 C 744.71 794.98 744.49 795.24 744.25 795.5 C 741.92 798.02 737.72 801.5 732.83 800.5 C 725.37 798.92 725.37 812.04 736.03 813.09 C 742.9 813.76 756.4 816.83 765.15 818.93 C 767.084 819.418 769.135 818.934 770.647 817.633 C 772.16 816.331 772.944 814.376 772.75 812.39 C 772.23 807.69 771.28 802 769.55 797.95 C 769.44 797.7 769.33 797.45 769.22 797.22 C 769.53 796.92 769.85 796.62 770.16 796.3 C 770.16 796.3 770.16 773.21 773.9 766.92 C 773.9 766.92 784.03 719.17 783.49 707.1 C 783.08 697.66 809.78 660.89 821.4 645.36 L 821.3 644.77 C 824.3 640.77 826.16 638.37 826.16 638.37 L 835.15 695.57 C 835.15 695.57 839.42 708.16 844.75 714.98 C 844.75 714.98 867.68 758.53 870.35 772.17 C 872.35 782.52 876.53 788.63 878.43 790.99 L 877.74 791.65 C 875.31 793.88 871.74 796.11 867.68 795.26 C 860.22 793.68 860.22 806.8 870.88 807.85 C 877.75 808.53 891.25 811.6 899.99 813.7 C 901.927 814.188 903.98 813.703 905.494 812.399 C 907.008 811.096 907.794 809.138 907.6 807.15 C 906.99 801.69 905.8 794.9 903.5 790.89 C 903.314 790.546 903.111 790.213 902.89 789.89 C 903.703 789.565 904.429 789.055 905.01 788.4 C 905.01 788.4 891.14 755.34 891.14 746.4 C 891.14 746.4 885.28 712.3 865.55 699.71 C 865.55 699.71 867.41 657.05 873.03 633.31 C 873.17 632.73 873.31 632.15 873.45 631.59 C 878.688 630.771 883.881 629.69 889.01 628.35 L 889.54 612.61 L 892.21 625.2 L 922.07 606.84 C 922.07 606.84 921.81 603.53 921.31 598.46 C 921.05 595.92 920.74 592.94 920.37 589.71 C 920.07 587.13 919.73 584.39 919.37 581.59 C 919.27 580.89 919.18 580.18 919.08 579.48 C 918.69 576.65 918.26 573.79 917.8 570.99 Q 917.53 569.41 917.26 567.87 C 917.01 566.5 916.76 565.16 916.5 563.87 C 916.37 563.22 916.23 562.57 916.1 561.94 C 915.97 561.31 915.82 560.68 915.68 560.07 C 915.54 559.46 915.4 558.87 915.26 558.28 C 915.18 557.99 915.11 557.7 915.04 557.42 C 914.89 556.85 914.74 556.29 914.59 555.75 C 913.964 553.506 913.602 551.197 913.51 548.87 C 913.51 547.95 913.51 547.02 913.51 546.1 C 913.51 545.18 913.65 544.26 913.78 543.34 C 913.84 542.89 913.92 542.43 914.01 541.98 C 914.349 540.151 914.854 538.357 915.52 536.62 C 915.85 535.75 916.23 534.89 916.64 534.04 C 917.64 532.04 918.64 529.91 919.7 527.64 C 920.24 526.51 920.78 525.35 921.32 524.17 C 921.86 522.99 922.41 521.79 922.96 520.57 C 928.15 509 933.27 496.11 934.64 487.64 C 934.78 486.75 934.89 485.91 934.94 485.12 C 934.998 484.401 935.008 483.68 934.97 482.96 L 934.97 482.96 Z " fill="url(#_lgradient_23)"/><path d=" M 845.9 451.57 L 828.31 439.68 C 828.31 439.68 800.38 429.33 792.62 445.37 C 792.62 445.37 826.24 453.13 826.24 453.13 L 843.83 462.95 L 845.9 451.57 Z " fill="rgb(174,110,121)"/><rect x="726.587" y="419.32" width="168.244" height="261.913" transform="matrix(0.541,-0.841,0.841,0.541,-90.569,934.661)" fill="rgb(249,250,251)"/><rect x="681.398" y="517.666" width="47.6" height="11.2" transform="matrix(0.536,-0.844,0.844,0.536,-114.639,837.875)" fill="rgb(183,182,204)"/><rect x="698.019" y="501.99" width="104.54" height="10.27" transform="matrix(0.536,-0.844,0.844,0.536,-80.105,868.449)" fill="rgb(183,182,204)"/><rect x="716.537" y="513.745" width="104.54" height="10.27" transform="matrix(0.536,-0.844,0.844,0.536,-81.439,889.53)" fill="rgb(183,182,204)"/><rect x="735.049" y="525.518" width="104.54" height="10.27" transform="matrix(0.536,-0.844,0.844,0.536,-82.792,910.615)" fill="rgb(183,182,204)"/><rect x="754.454" y="542.814" width="104.394" height="10.256" transform="matrix(0.541,-0.841,0.841,0.541,-90.469,930.175)" fill="rgb(183,182,204)"/><rect x="772.078" y="549.042" width="104.54" height="10.27" transform="matrix(0.536,-0.844,0.844,0.536,-85.475,952.777)" fill="rgb(255,255,255)"/><rect x="790.596" y="560.796" width="104.54" height="10.27" transform="matrix(0.536,-0.844,0.844,0.536,-86.81,973.858)" fill="rgb(255,255,255)"/><rect x="893.389" y="539.472" width="27.07" height="27.07" transform="matrix(0.536,-0.844,0.844,0.536,-46.195,1021.933)" fill="rgb(183,182,204)"/><path d=" M 897.93 814.21 C 889.44 812.14 876.35 809.12 869.69 808.45 C 859.34 807.45 859.34 794.45 866.59 796.03 C 870.51 796.88 873.99 794.67 876.34 792.48 C 877.053 791.794 877.721 791.063 878.34 790.29 C 879.195 789.25 880.375 788.528 881.69 788.24 C 885.57 787.4 893.69 786.12 898.6 788.79 C 899.748 789.503 900.676 790.521 901.28 791.73 C 903.51 795.73 904.67 802.38 905.28 807.73 C 905.488 809.667 904.744 811.584 903.282 812.873 C 901.821 814.161 899.825 814.659 897.93 814.21 Z " fill="rgb(190,190,208)"/><path d=" M 767.06 819.38 C 758.58 817.31 745.49 814.29 738.83 813.62 C 728.48 812.62 728.48 799.62 735.72 801.21 C 740.46 802.21 744.54 798.8 746.79 796.32 C 747.07 796.02 747.32 795.73 747.53 795.46 C 748.39 794.441 749.565 793.737 750.87 793.46 C 754.75 792.61 762.87 791.33 767.79 794.01 C 769.25 794.79 770.41 796.51 771.34 798.74 C 773.01 802.74 773.93 808.34 774.44 812.97 C 774.627 814.902 773.868 816.805 772.402 818.077 C 770.937 819.35 768.947 819.835 767.06 819.38 L 767.06 819.38 Z " fill="rgb(190,190,208)"/><g opacity="0.1"><path d=" M 771.34 798.7 C 758.99 811.43 748.4 798.46 746.79 796.32 C 747.07 796.02 747.32 795.73 747.53 795.46 C 748.39 794.441 749.565 793.737 750.87 793.46 C 754.75 792.61 762.87 791.33 767.79 794.01 C 769.25 794.75 770.46 796.47 771.34 798.7 Z " fill="rgb(0,0,0)"/></g><g opacity="0.1"><path d=" M 901.33 791.73 C 895.98 795.38 877.97 794.48 877.97 794.48 C 877.376 793.856 876.832 793.187 876.34 792.48 C 877.053 791.794 877.721 791.063 878.34 790.29 C 879.195 789.25 880.375 788.528 881.69 788.24 C 885.57 787.4 893.69 786.12 898.6 788.79 C 899.766 789.496 900.712 790.515 901.33 791.73 Z " fill="rgb(0,0,0)"/></g><path d=" M 902.28 789.31 C 898.65 793.97 877.97 792.93 877.97 792.93 C 877.97 792.93 871.76 786.72 869.17 773.28 C 866.58 759.84 844.34 716.9 844.34 716.9 C 839.17 710.17 835.03 697.76 835.03 697.76 L 826.24 641.38 C 826.24 641.38 783.83 697.24 784.35 709.14 C 784.35 709.14 775.03 768.14 775.03 768.14 C 771.41 774.35 771.41 797.14 771.41 797.14 C 757.97 811.14 746.59 794.55 746.59 794.55 C 744 783.69 748.14 748 748.14 748 C 748.14 748 754.35 718 754.86 699.38 C 755.37 680.76 761.59 676.11 761.59 676.11 C 766.421 656.917 774.647 638.744 785.88 622.45 C 789 617.98 791.07 615.59 791.07 615.59 L 874.86 625.42 C 873.253 628.976 872.046 632.698 871.26 636.52 C 865.81 659.92 864 701.97 864 701.97 C 883.14 714.38 888.83 747.97 888.83 747.97 C 888.83 756.72 902.28 789.31 902.28 789.31 Z " fill="rgb(92,92,142)"/><g style="opacity:0.05;"><g opacity="0.05"><path d=" M 821.63 648.27 L 820.55 641.38 C 820.55 641.38 778.14 697.24 778.66 709.14 C 778.66 709.14 769.35 768.14 769.35 768.14 C 765.72 774.35 765.72 797.14 765.72 797.14 C 763.554 799.584 760.754 801.38 757.63 802.33 C 761.7 803.4 766.63 802.61 771.93 797.14 C 771.93 797.14 771.93 774.38 775.55 768.14 C 775.55 768.14 785.38 721.07 784.86 709.14 C 784.46 699.83 810.35 663.57 821.63 648.27 Z " fill="rgb(0,0,0)"/></g><g opacity="0.05"><path d=" M 889.34 747.93 C 889.34 747.93 883.65 714.31 864.52 701.93 C 864.52 701.93 866.33 659.88 871.77 636.48 C 872.559 632.658 873.769 628.935 875.38 625.38 L 791.59 615.57 C 791.59 615.57 791.39 615.79 791.03 616.23 L 869.17 625.4 C 867.563 628.956 866.356 632.678 865.57 636.5 C 860.12 659.9 858.31 701.95 858.31 701.95 C 877.45 714.36 883.14 747.95 883.14 747.95 C 883.14 756.74 896.59 789.33 896.59 789.33 C 894.45 792.07 886.39 792.84 880.12 793.01 C 885.12 793.14 899.79 793.19 902.79 789.33 C 902.79 789.31 889.34 756.72 889.34 747.93 Z " fill="rgb(0,0,0)"/></g></g><path d=" M 775.55 608.28 C 774.924 609.808 774.1 611.246 773.1 612.56 C 769.99 616.75 763.52 622.29 751.68 620.77 C 749.906 620.543 748.381 619.4 747.664 617.761 C 746.947 616.123 747.143 614.228 748.18 612.77 C 751.981 607.226 757.438 603.026 763.77 600.77 C 765.912 600.063 768.131 599.613 770.38 599.43 L 775.55 608.28 Z " fill="rgb(174,110,121)"/><path d=" M 884.79 463.62 L 843.31 448.45 C 843.31 448.45 831.41 454.66 836.07 463.45 L 876.46 488.8 L 884.79 463.62 Z " fill="rgb(66,56,60)"/><g opacity="0.1"><path d=" M 884.95 463.79 L 843.46 448.62 C 843.46 448.62 831.56 454.82 836.22 463.62 L 876.56 488.96 L 884.95 463.79 Z " fill="rgb(0,0,0)"/></g><path d=" M 886.24 438.62 C 886.24 438.62 885.72 462.93 896.59 471.21 C 896.59 471.21 865.03 484.14 865.03 484.14 C 865.03 484.14 871.76 459.31 865.03 446.38 C 858.3 433.45 886.24 438.62 886.24 438.62 Z " fill="rgb(174,110,121)"/><g opacity="0.1"><path d=" M 874.86 625.35 C 873.253 628.906 872.046 632.628 871.26 636.45 C 821.26 644.09 786.41 623.28 786.41 623.28 C 786.22 622.98 786.04 622.68 785.88 622.38 C 789 617.91 791.07 615.52 791.07 615.52 L 874.86 625.35 Z " fill="rgb(0,0,0)"/></g><g opacity="0.1"><path d=" M 775.55 608.28 C 774.924 609.808 774.1 611.246 773.1 612.56 C 768.31 611.76 764.48 602.56 763.77 600.82 C 765.912 600.113 768.131 599.663 770.38 599.48 L 775.55 608.28 Z " fill="rgb(0,0,0)"/></g><path d=" M 890.38 460.35 L 871.76 467.07 L 864 477.42 C 864 477.42 848 482.59 845.9 482.59 C 845.9 482.59 838.14 484.66 834.52 492.93 C 830.9 501.2 817.97 541.57 806.59 548.28 C 795.21 554.99 765.21 600 765.21 600 C 765.21 600 770.38 614 776.59 611.9 L 791.07 600 C 791.07 600 779.69 611.38 786.41 621.73 C 786.41 621.73 828.83 647.07 887.28 631.55 L 887.79 616.04 L 890.38 628.45 L 919.38 610.35 C 919.38 610.35 916.79 576.96 912.12 559.97 C 910.186 552.825 910.896 545.223 914.12 538.56 C 921.63 522.91 933.22 496.77 931.81 487.24 C 930.14 476.01 923.81 471.13 921.37 469.66 C 920.817 469.323 920.195 469.114 919.55 469.05 L 910.08 468.11 L 890.38 460.35 Z " fill="rgb(66,56,60)"/><g opacity="0.05"><path d=" M 858.57 512.33 C 858.57 512.33 848.22 560.43 836.84 568.19 C 836.84 568.19 794.95 600.78 793.91 604.92" fill="rgb(0,0,0)"/></g><path d=" M 853.91 510.78 C 853.91 510.78 843.57 558.88 832.19 566.64 C 832.19 566.64 790.29 599.23 789.26 603.36" fill="rgb(66,56,60)"/><g opacity="0.1"><path d=" M 863.74 477.16 C 863.74 477.16 899.43 465.26 909.74 468.36" fill="rgb(0,0,0)"/></g><g style="opacity:0.05;"><g opacity="0.05"><path d=" M 914.07 538.57 C 921.58 522.92 933.17 496.78 931.76 487.25 C 930.09 476.02 923.76 471.14 921.32 469.67 C 920.767 469.333 920.145 469.124 919.5 469.06 L 915.5 468.66 C 915.924 468.757 916.329 468.923 916.7 469.15 C 919.12 470.63 925.47 475.5 927.13 486.74 C 928.54 496.26 916.95 522.41 909.45 538.06 C 906.226 544.719 905.516 552.319 907.45 559.46 C 912.13 576.46 914.72 609.84 914.72 609.84 L 889.78 625.43 L 890.41 628.43 L 919.41 610.33 C 919.41 610.33 916.82 576.94 912.15 559.95 C 910.198 552.824 910.88 545.234 914.07 538.57 Z " fill="rgb(0,0,0)"/></g><g opacity="0.05"><path d=" M 905.38 467.59 L 909.86 468.04 L 890.38 460.35 L 888.63 460.98 L 905.38 467.59 L 905.38 467.59 Z " fill="rgb(0,0,0)"/></g></g><g opacity="0.05"><path d=" M 853.91 560.95 C 853.91 560.95 869.91 552.16 875.12 554.23 C 875.12 554.23 899.43 553.71 899.43 553.71" fill="rgb(0,0,0)"/></g><g opacity="0.05"><path d=" M 884.46 445.09 C 883.87 439.9 886.27 440.69 886.27 440.69 C 886.27 440.69 858.34 435.52 865.06 448.45 C 866.754 452.013 867.72 455.879 867.9 459.82 L 868.17 459.82 C 875.93 459.83 880.46 451.15 884.46 445.09 Z " fill="rgb(0,0,0)"/></g><circle vector-effect="non-scaling-stroke" cx="868.14" cy="435.52" r="22.24000000000001" fill="rgb(174,110,121)"/><g opacity="0.1"><path d=" M 892.46 442.1 C 894.46 437.67 895.95 432.87 895.71 428.01 C 895.47 423.15 893.29 418.22 889.25 415.5 C 887.17 414.1 884.71 413.35 882.54 412.07 C 880.85 411.07 879.36 409.76 877.75 408.64 C 869.732 403.175 859.404 402.412 850.67 406.64 C 846.59 408.64 843.11 411.75 839.26 414.2 C 835.41 416.65 830.87 418.53 826.36 417.81 C 825.58 419.96 827.49 422.08 829.24 423.56 C 832.57 426.35 836.34 429.13 840.68 429.22 C 842.36 429.22 844.13 428.9 845.68 429.6 C 846.707 430.167 847.579 430.977 848.22 431.96 C 850.308 434.737 852.079 437.739 853.5 440.91 C 853.935 442.273 854.754 443.482 855.86 444.39 C 857.86 445.67 860.45 444.6 862.86 444.51 C 866.54 444.36 869.86 446.68 872.58 449.16 C 875.3 451.64 877.9 454.48 881.34 455.79 C 883.91 456.79 889.05 456.73 890.34 453.66 C 890.83 452.5 889.88 450.02 890.08 448.6 C 890.561 446.332 891.363 444.143 892.46 442.1 L 892.46 442.1 Z " fill="rgb(0,0,0)"/></g><path d=" M 892.92 441.57 C 894.92 437.14 896.42 432.34 896.17 427.49 C 895.92 422.64 893.76 417.69 889.72 414.98 C 887.63 413.57 885.17 412.82 883.01 411.54 C 881.32 410.54 879.83 409.24 878.22 408.11 C 870.202 402.645 859.874 401.882 851.14 406.11 C 847.06 408.11 843.58 411.21 839.73 413.66 C 835.88 416.11 831.34 418 826.83 417.27 C 826.05 419.43 827.95 421.55 829.71 423.02 C 833.04 425.81 836.81 428.59 841.15 428.69 C 842.83 428.69 844.6 428.36 846.15 429.07 C 847.181 429.631 848.055 430.443 848.69 431.43 C 850.778 434.202 852.546 437.201 853.96 440.37 C 854.398 441.734 855.221 442.942 856.33 443.85 C 858.33 445.13 860.92 444.06 863.33 443.97 C 867.01 443.83 870.33 446.15 873.04 448.63 C 875.75 451.11 878.36 453.94 881.81 455.25 C 884.38 456.25 889.52 456.19 890.81 453.12 C 891.31 451.96 890.36 449.48 890.56 448.06 C 891.036 445.796 891.83 443.611 892.92 441.57 Z " fill="rgb(66,56,60)"/><g opacity="0.1"><path d=" M 731.92 770 C 730.055 771.531 727.712 772.359 725.3 772.34 L 278.53 770.44 C 276.107 767.523 274.996 763.734 275.46 759.97 L 319.6 398.8 L 347.28 398.5 C 352.041 398.452 356.233 401.625 357.48 406.22 L 362.65 425.3 C 363.91 429.946 368.178 433.133 372.99 433.02 L 483.46 430.37 C 489.139 430.234 493.672 425.591 493.67 419.91 L 493.67 407.27 C 493.67 401.54 498.28 396.876 504.01 396.81 L 657.09 395.16 C 662.144 395.113 666.508 398.686 667.46 403.65 L 735.16 757.65 L 735.6 759.93 C 736.331 763.709 734.916 767.583 731.92 770 Z " fill="rgb(0,0,0)"/></g><path d=" M 652.09 400.17 L 499.01 401.82 C 493.28 401.88 488.665 406.54 488.66 412.27 L 488.66 424.92 C 488.656 430.593 484.131 435.229 478.46 435.37 L 368 438.02 C 363.183 438.141 358.907 434.952 357.65 430.3 L 352.46 411.23 C 351.215 406.63 347.016 403.454 342.25 403.51 L 194.7 405.1 C 191.64 405.13 188.748 406.499 186.785 408.847 C 184.823 411.194 183.987 414.284 184.5 417.3 L 243.86 766.66 C 244.711 771.674 249.044 775.349 254.13 775.37 L 720.27 777.37 C 723.394 777.381 726.358 775.995 728.354 773.591 C 730.349 771.188 731.165 768.018 730.58 764.95 L 662.46 408.66 C 661.512 403.694 657.145 400.119 652.09 400.17 L 652.09 400.17 Z " fill="rgb(230,232,238)"/><path d=" M 867.68 160.93 L 866.88 169.83 L 867.46 185.57 L 865.77 212.12 C 865.77 212.12 865.53 223.75 858.96 229.2 L 842.19 254.95 L 842.09 255 L 835.78 258.08 L 826.15 259.08 L 821.15 246.97 L 824.46 233.67 L 826.3 231.19 L 826.81 230.63 C 828.81 228.43 836.53 220.44 842.66 217.95 C 842.66 217.95 846.75 214.95 846.03 210.25 C 845.31 205.55 851.55 180.57 851.55 180.57 C 851.55 180.57 855.55 164.05 854.68 162.44 C 853.81 160.83 854.52 124.26 868.32 123.7 C 882.12 123.14 867.68 160.93 867.68 160.93 Z " fill="rgb(246,186,194)"/><g opacity="0.1"><circle vector-effect="non-scaling-stroke" cx="33.94" cy="126.71000000000001" r="21.629999999999995" fill="rgb(255,255,255)"/></g><g opacity="0.1"><circle vector-effect="non-scaling-stroke" cx="1074.03" cy="299.56" r="21.63000000000011" fill="rgb(255,255,255)"/></g><g opacity="0.1"><circle vector-effect="non-scaling-stroke" cx="685.21" cy="58.019999999999996" r="21.629999999999995" fill="rgb(255,255,255)"/></g><g opacity="0.1"><circle vector-effect="non-scaling-stroke" cx="77.2" cy="246.03999999999996" r="36.25" fill="rgb(255,255,255)"/></g></g></svg>